<svg width="230" height="56" viewBox="0 0 230 56" fill="none" xmlns="http://www.w3.org/2000/svg">
<path d="M0 12.8C0 8.31958 0 6.07937 0.871948 4.36808C1.63893 2.86278 2.86278 1.63893 4.36808 0.871948C6.07937 0 8.31958 0 12.8 0H217.2C221.68 0 223.921 0 225.632 0.871948C227.137 1.63893 228.361 2.86278 229.128 4.36808C230 6.07937 230 8.31958 230 12.8V40.6981C230 42.6548 230 43.6332 229.779 44.5539C229.583 45.3701 229.26 46.1505 228.821 46.8663C228.326 47.6736 227.635 48.3654 226.251 49.749L223.749 52.251C222.365 53.6346 221.674 54.3264 220.866 54.8211C220.15 55.2598 219.37 55.583 218.554 55.779C217.633 56 216.655 56 214.698 56H12.8C8.31958 56 6.07937 56 4.36808 55.1281C2.86278 54.3611 1.63893 53.1372 0.871948 51.6319C0 49.9206 0 47.6804 0 43.2V12.8Z" fill="#EA0046"/>
</svg>
