<svg width="28" height="17" viewBox="0 0 28 17" fill="none" xmlns="http://www.w3.org/2000/svg">
<path d="M20.1367 9.96875C20.1367 10.6562 20.0469 11.3086 19.8672 11.9258C19.6953 12.5352 19.4492 13.1016 19.1289 13.625C18.8086 14.1484 18.4297 14.6172 17.9922 15.0312C17.5547 15.4453 17.0742 15.8008 16.5508 16.0977C16.0352 16.3867 15.4844 16.6094 14.8984 16.7656C14.3125 16.9219 13.7148 17 13.1055 17H7.60938C6.99219 17 6.39062 16.9219 5.80469 16.7656C5.21875 16.6094 4.66406 16.3867 4.14062 16.0977C3.625 15.8008 3.14844 15.4453 2.71094 15.0312C2.27344 14.6172 1.89453 14.1484 1.57422 13.625C1.26172 13.1016 1.01562 12.5352 0.835938 11.9258C0.664062 11.3086 0.578125 10.6562 0.578125 9.96875V7.22656C0.578125 6.19531 0.769531 5.25 1.15234 4.39062C1.54297 3.53125 2.0625 2.79297 2.71094 2.17578C3.35938 1.55078 4.10547 1.06641 4.94922 0.722656C5.80078 0.371094 6.6875 0.195312 7.60938 0.195312H13.1055C13.7148 0.195312 14.3125 0.273438 14.8984 0.429688C15.4844 0.585937 16.0352 0.8125 16.5508 1.10938C17.0742 1.39844 17.5547 1.75 17.9922 2.16406C18.4297 2.57812 18.8086 3.04687 19.1289 3.57031C19.4492 4.09375 19.6953 4.66406 19.8672 5.28125C20.0469 5.89062 20.1367 6.53906 20.1367 7.22656V9.96875ZM17.0664 7.22656C17.0664 6.625 16.957 6.07812 16.7383 5.58594C16.5195 5.09375 16.2266 4.67188 15.8594 4.32031C15.5 3.96875 15.082 3.69922 14.6055 3.51172C14.1289 3.32422 13.6289 3.23437 13.1055 3.24219H7.60938C7.10156 3.23437 6.60547 3.32422 6.12109 3.51172C5.64453 3.69141 5.21875 3.95703 4.84375 4.30859C4.47656 4.65234 4.17969 5.07422 3.95312 5.57422C3.73438 6.06641 3.625 6.61719 3.625 7.22656V9.96875C3.625 10.5781 3.73438 11.1289 3.95312 11.6211C4.17188 12.1133 4.46484 12.5352 4.83203 12.8867C5.19922 13.2305 5.62109 13.4961 6.09766 13.6836C6.58203 13.8711 7.08594 13.9609 7.60938 13.9531H13.1055C13.707 13.9531 14.25 13.8555 14.7344 13.6602C15.2266 13.457 15.6445 13.1797 15.9883 12.8281C16.332 12.4766 16.5977 12.0586 16.7852 11.5742C16.9727 11.082 17.0664 10.5469 17.0664 9.96875V7.22656ZM15.7422 5C15.8594 5.17188 15.9375 5.35938 15.9766 5.5625C16.0156 5.75781 16.0156 5.95312 15.9766 6.14844C15.9375 6.33594 15.8594 6.51562 15.7422 6.6875C15.6328 6.85156 15.4883 6.99219 15.3086 7.10938L7.08203 12.6055C6.94922 12.707 6.8125 12.7773 6.67188 12.8164C6.53125 12.8555 6.38672 12.875 6.23828 12.875C5.98828 12.875 5.75 12.8164 5.52344 12.6992C5.29688 12.582 5.11328 12.4141 4.97266 12.1953C4.85547 12.0234 4.77734 11.8398 4.73828 11.6445C4.69922 11.4414 4.69531 11.2461 4.72656 11.0586C4.76562 10.8633 4.83984 10.6836 4.94922 10.5195C5.05859 10.3477 5.20312 10.2031 5.38281 10.0859L13.6328 4.58984C13.8047 4.47266 13.9883 4.39453 14.1836 4.35547C14.3867 4.31641 14.582 4.31641 14.7695 4.35547C14.9648 4.39453 15.1445 4.46875 15.3086 4.57812C15.4805 4.6875 15.625 4.82812 15.7422 5ZM27.8945 17H24.8359V3.24219H22.082V0.195312H27.8945V17Z" fill="#EA0046"/>
</svg>
