<svg width="37" height="17" viewBox="0 0 37 17" fill="none" xmlns="http://www.w3.org/2000/svg">
<path d="M19.8945 9.96875C19.8945 10.6562 19.8047 11.3086 19.625 11.9258C19.4531 12.5352 19.207 13.1016 18.8867 13.625C18.5664 14.1484 18.1875 14.6172 17.75 15.0312C17.3125 15.4453 16.832 15.8008 16.3086 16.0977C15.793 16.3867 15.2422 16.6094 14.6562 16.7656C14.0703 16.9219 13.4727 17 12.8633 17H7.36719C6.75 17 6.14844 16.9219 5.5625 16.7656C4.97656 16.6094 4.42188 16.3867 3.89844 16.0977C3.38281 15.8008 2.90625 15.4453 2.46875 15.0312C2.03125 14.6172 1.65234 14.1484 1.33203 13.625C1.01953 13.1016 0.773438 12.5352 0.59375 11.9258C0.421875 11.3086 0.335938 10.6562 0.335938 9.96875V7.22656C0.335938 6.19531 0.527344 5.25 0.910156 4.39062C1.30078 3.53125 1.82031 2.79297 2.46875 2.17578C3.11719 1.55078 3.86328 1.06641 4.70703 0.722656C5.55859 0.371094 6.44531 0.195312 7.36719 0.195312H12.8633C13.4727 0.195312 14.0703 0.273438 14.6562 0.429688C15.2422 0.585937 15.793 0.8125 16.3086 1.10938C16.832 1.39844 17.3125 1.75 17.75 2.16406C18.1875 2.57812 18.5664 3.04687 18.8867 3.57031C19.207 4.09375 19.4531 4.66406 19.625 5.28125C19.8047 5.89062 19.8945 6.53906 19.8945 7.22656V9.96875ZM16.8242 7.22656C16.8242 6.625 16.7148 6.07812 16.4961 5.58594C16.2773 5.09375 15.9844 4.67188 15.6172 4.32031C15.2578 3.96875 14.8398 3.69922 14.3633 3.51172C13.8867 3.32422 13.3867 3.23437 12.8633 3.24219H7.36719C6.85938 3.23437 6.36328 3.32422 5.87891 3.51172C5.40234 3.69141 4.97656 3.95703 4.60156 4.30859C4.23438 4.65234 3.9375 5.07422 3.71094 5.57422C3.49219 6.06641 3.38281 6.61719 3.38281 7.22656V9.96875C3.38281 10.5781 3.49219 11.1289 3.71094 11.6211C3.92969 12.1133 4.22266 12.5352 4.58984 12.8867C4.95703 13.2305 5.37891 13.4961 5.85547 13.6836C6.33984 13.8711 6.84375 13.9609 7.36719 13.9531H12.8633C13.4648 13.9531 14.0078 13.8555 14.4922 13.6602C14.9844 13.457 15.4023 13.1797 15.7461 12.8281C16.0898 12.4766 16.3555 12.0586 16.543 11.5742C16.7305 11.082 16.8242 10.5469 16.8242 9.96875V7.22656ZM15.5 5C15.6172 5.17188 15.6953 5.35938 15.7344 5.5625C15.7734 5.75781 15.7734 5.95312 15.7344 6.14844C15.6953 6.33594 15.6172 6.51562 15.5 6.6875C15.3906 6.85156 15.2461 6.99219 15.0664 7.10938L6.83984 12.6055C6.70703 12.707 6.57031 12.7773 6.42969 12.8164C6.28906 12.8555 6.14453 12.875 5.99609 12.875C5.74609 12.875 5.50781 12.8164 5.28125 12.6992C5.05469 12.582 4.87109 12.4141 4.73047 12.1953C4.61328 12.0234 4.53516 11.8398 4.49609 11.6445C4.45703 11.4414 4.45312 11.2461 4.48438 11.0586C4.52344 10.8633 4.59766 10.6836 4.70703 10.5195C4.81641 10.3477 4.96094 10.2031 5.14062 10.0859L13.3906 4.58984C13.5625 4.47266 13.7461 4.39453 13.9414 4.35547C14.1445 4.31641 14.3398 4.31641 14.5273 4.35547C14.7227 4.39453 14.9023 4.46875 15.0664 4.57812C15.2383 4.6875 15.3828 4.82812 15.5 5ZM36.8398 12.7227C36.8398 13.5117 36.6953 14.1797 36.4062 14.7266C36.125 15.2656 35.7695 15.707 35.3398 16.0508C34.918 16.3867 34.457 16.6289 33.957 16.7773C33.457 16.9258 32.9922 17 32.5625 17H22.7891V13.9531H32.5625C32.9766 13.9531 33.2812 13.8477 33.4766 13.6367C33.6797 13.4258 33.7812 13.1211 33.7812 12.7227V10.1328H22.7891V7.0625H33.7812V4.49609C33.7812 3.66016 33.375 3.24219 32.5625 3.24219H22.7891V0.195312H32.5625C33.0859 0.195312 33.5547 0.261719 33.9688 0.394531C34.3828 0.527344 34.7461 0.707031 35.0586 0.933594C35.3789 1.15234 35.6523 1.40625 35.8789 1.69531C36.1055 1.98438 36.2891 2.28906 36.4297 2.60938C36.5703 2.92188 36.6719 3.24219 36.7344 3.57031C36.8047 3.89062 36.8398 4.19141 36.8398 4.47266V12.7227Z" fill="#EA0046"/>
</svg>
